<?xml version="1.0" encoding="UTF-8" standalone="no"?>
<!-- Created with Inkscape (http://www.inkscape.org/) -->

<svg
   width="210mm"
   height="297mm"
   viewBox="0 0 210 297"
   version="1.1"
   id="svg1"
   xml:space="preserve"
   inkscape:version="1.3.2 (091e20e, 2023-11-25, custom)"
   sodipodi:docname="GameSaveSyncServer.svg"
   xmlns:inkscape="http://www.inkscape.org/namespaces/inkscape"
   xmlns:sodipodi="http://sodipodi.sourceforge.net/DTD/sodipodi-0.dtd"
   xmlns="http://www.w3.org/2000/svg"
   xmlns:svg="http://www.w3.org/2000/svg"><sodipodi:namedview
     id="namedview1"
     pagecolor="#ffffff"
     bordercolor="#666666"
     borderopacity="1.0"
     inkscape:showpageshadow="2"
     inkscape:pageopacity="0.0"
     inkscape:pagecheckerboard="0"
     inkscape:deskcolor="#d1d1d1"
     inkscape:document-units="mm"
     inkscape:zoom="0.51717104"
     inkscape:cx="162.42209"
     inkscape:cy="596.51445"
     inkscape:window-width="1920"
     inkscape:window-height="1017"
     inkscape:window-x="-8"
     inkscape:window-y="472"
     inkscape:window-maximized="1"
     inkscape:current-layer="layer2"
     showgrid="false" /><defs
     id="defs1"><rect
       x="157.5881"
       y="639.05358"
       width="463.47169"
       height="57.441811"
       id="rect6" /></defs><g
     inkscape:groupmode="layer"
     id="layer2"
     inkscape:label="Layer 1"
     style="display:inline"><rect
       style="display:inline;fill:#ea4732;fill-opacity:1;stroke-width:3.96875;stroke-linecap:round;stroke-linejoin:bevel"
       id="rect1"
       width="132.10246"
       height="126.29587"
       x="34.517277"
       y="60.991901"
       rx="21.998686"
       ry="21.998686"
       inkscape:label="base"
       inkscape:export-filename="..\Documents\development\GameSaveSyncClient\res\icon\GameSaveSyncClient.png"
       inkscape:export-xdpi="205.94"
       inkscape:export-ydpi="205.94" /><g
       id="g3"
       transform="translate(-9.0558862e-4,6.6375546)"><g
         id="g2"
         inkscape:label="floppy"
         transform="translate(9.0723681e-4,-6.6375546)"><path
           id="rect2"
           style="display:inline;fill:#f68e26;fill-opacity:1;stroke-width:4.15915;stroke-linecap:round;stroke-linejoin:bevel"
           inkscape:label="floppyBase"
           d="m 76.464583,118.17143 c -1.81002,0 -3.2675,1.45696 -3.2675,3.26698 v 41.42797 c 0,1.81002 1.45748,3.26698 3.2675,3.26698 h 48.206357 c 1.81002,0 3.26699,-1.45696 3.26699,-3.26698 l 0.002,-38.71709 -6.31021,-5.97786 z"
           sodipodi:nodetypes="ssssscccs" /><path
           id="rect4"
           style="display:inline;fill:#fffffe;fill-opacity:1;stroke-width:4.18419;stroke-linecap:round;stroke-linejoin:bevel"
           inkscape:label="floppyTop"
           d="m 116.05907,118.17294 0.19185,13.34192 c 0.0217,1.50671 -1.21311,2.71997 -2.71998,2.71997 H 85.678551 c -1.506864,0 -2.723582,-1.2131 -2.719971,-2.71997 l 0.03198,-13.34192 z"
           sodipodi:nodetypes="csssscc" /><path
           id="rect4-8"
           style="display:inline;fill:#fffffe;fill-opacity:1;stroke-width:5.38952;stroke-linecap:round;stroke-linejoin:bevel"
           inkscape:label="floppyBottom"
           d="m 118.18392,164.55178 0.20539,-20.67558 c 0.0233,-2.33491 -1.29879,-4.21506 -2.91208,-4.21506 H 85.657675 c -1.613292,0 -2.915944,1.8799 -2.912078,4.21506 l 0.03424,20.67558 z"
           sodipodi:nodetypes="csssscc" /><rect
           style="display:inline;fill:#f68e26;fill-opacity:1;stroke-width:4.07348;stroke-linecap:round;stroke-linejoin:bevel"
           id="rect3"
           width="7.0196109"
           height="11.13566"
           x="104.08357"
           y="120.8908"
           rx="0.52588588"
           ry="0.55400699"
           inkscape:label="floppyNotch" /></g><g
         id="g1"
         inkscape:label="arrows"
         transform="translate(-1.1060593,-6.6375546)"><path
           style="fill:#feffff;fill-opacity:1;stroke:none;stroke-width:0.0269875;stroke-linecap:butt;stroke-linejoin:miter;stroke-dasharray:none;stroke-opacity:1"
           d="m 111.89502,90.632316 -3.15404,3.154042 c -0.0524,0.548849 0.0592,0.967647 0.62176,1.028737 h 8.00381 c 0.36527,-0.0494 0.75465,-0.06973 0.76873,-0.542631 v -8.283811 c -0.1243,-0.649926 -0.51818,-0.713119 -1.00275,-0.578934 l -2.612,2.612001 C 103.33759,76.258731 86.478688,83.796699 85.053058,96.236587 85.010918,97.70409 86.85621,99.38197 88.674209,96.772167 90.979456,85.77611 103.26086,81.83228 111.89502,90.632316 Z"
           id="path5"
           sodipodi:nodetypes="ccccccccccc"
           inkscape:label="arrow2" /><path
           style="fill:#feffff;fill-opacity:1;stroke:none;stroke-width:0.0273121;stroke-linecap:butt;stroke-linejoin:miter;stroke-dasharray:none;stroke-opacity:1"
           d="m 91.25034,106.60206 3.191988,-3.19201 c 0.05305,-0.55544 -0.05991,-0.97928 -0.629242,-1.04111 h -8.100103 c -0.369664,0.0499 -0.763729,0.0705 -0.777979,0.54916 v 8.38348 c 0.125796,0.65774 0.524414,0.7217 1.014814,0.5859 l 2.643425,-2.64344 c 11.317481,11.90452 28.379207,4.27586 29.821987,-8.31368 0.0426,-1.485173 -1.82484,-3.183239 -3.66471,-0.54203 -2.33297,11.12834 -14.762145,15.11963 -23.50018,6.21373 z"
           id="path6"
           sodipodi:nodetypes="ccccccccccc"
           inkscape:label="arrow1" /></g></g><text
       xml:space="preserve"
       transform="matrix(0.27695668,0,0,0.28057983,-5.4966927,6.0330101)"
       id="text6"
       style="font-size:41.8587px;line-height:1.25;font-family:Aquire;-inkscape-font-specification:Aquire;white-space:pre;shape-inside:url(#rect6);display:inline"
       inkscape:label="text"
       inkscape:export-filename="..\Documents\development\GameSaveSyncClient\res\icon\GameSaveSyncClient.png"
       inkscape:export-xdpi="205.94"
       inkscape:export-ydpi="205.94"><tspan
         x="157.58789"
         y="680.39"
         id="tspan4"><tspan
           style="font-weight:bold;font-family:'Liberation Mono';-inkscape-font-specification:'Liberation Mono Bold';fill:#ffffff"
           id="tspan3">GameSaveSyncServer</tspan></tspan></text></g></svg>
