<?xml version="1.0" encoding="UTF-8" standalone="no"?>
<!-- Created with Inkscape (http://www.inkscape.org/) -->

<svg
   width="206.90085"
   height="317.42947"
   viewBox="0 0 54.742845 83.986676"
   version="1.1"
   id="svg1"
   xml:space="preserve"
   sodipodi:docname="GameSaveSyncServer_no_bg.svg"
   inkscape:version="1.4.2 (ebf0e940d0, 2025-05-08)"
   xmlns:inkscape="http://www.inkscape.org/namespaces/inkscape"
   xmlns:sodipodi="http://sodipodi.sourceforge.net/DTD/sodipodi-0.dtd"
   xmlns="http://www.w3.org/2000/svg"
   xmlns:svg="http://www.w3.org/2000/svg"><sodipodi:namedview
     id="namedview1"
     pagecolor="#39393c"
     bordercolor="#000000"
     borderopacity="0.25"
     inkscape:showpageshadow="2"
     inkscape:pageopacity="0.0"
     inkscape:pagecheckerboard="0"
     inkscape:deskcolor="#d1d1d1"
     inkscape:zoom="2.4280597"
     inkscape:cx="103.9925"
     inkscape:cy="158.76875"
     inkscape:window-width="2560"
     inkscape:window-height="1368"
     inkscape:window-x="0"
     inkscape:window-y="0"
     inkscape:window-maximized="1"
     inkscape:current-layer="svg1" /><defs
     id="defs1" /><g
     id="layer2"
     style="display:inline"
     transform="translate(-39.785943,-22.072558)"><g
       id="g2"
       transform="translate(-33.41114,-60.074036)"><path
         id="rect2"
         style="display:inline;fill:#f68e26;fill-opacity:1;stroke-width:4.15915;stroke-linecap:round;stroke-linejoin:bevel"
         d="m 76.464583,118.17143 c -1.81002,0 -3.2675,1.45696 -3.2675,3.26698 v 41.42797 c 0,1.81002 1.45748,3.26698 3.2675,3.26698 h 48.206357 c 1.81002,0 3.26699,-1.45696 3.26699,-3.26698 l 0.002,-38.71709 -6.31021,-5.97786 z" /><path
         id="rect4"
         style="display:inline;fill:#fffffe;fill-opacity:1;stroke-width:4.18419;stroke-linecap:round;stroke-linejoin:bevel"
         d="m 116.05907,118.17294 0.19185,13.34192 c 0.0217,1.50671 -1.21311,2.71997 -2.71998,2.71997 H 85.678551 c -1.506864,0 -2.723582,-1.2131 -2.719971,-2.71997 l 0.03198,-13.34192 z" /><path
         id="rect4-8"
         style="display:inline;fill:#fffffe;fill-opacity:1;stroke-width:5.38952;stroke-linecap:round;stroke-linejoin:bevel"
         d="m 118.18392,164.55178 0.20539,-20.67558 c 0.0233,-2.33491 -1.29879,-4.21506 -2.91208,-4.21506 H 85.657675 c -1.613292,0 -2.915944,1.8799 -2.912078,4.21506 l 0.03424,20.67558 z" /><rect
         style="display:inline;fill:#f68e26;fill-opacity:1;stroke-width:4.07348;stroke-linecap:round;stroke-linejoin:bevel"
         id="rect3"
         width="7.0196109"
         height="11.13566"
         x="104.08357"
         y="120.8908"
         rx="0.52588588"
         ry="0.55400699" /></g><g
       id="g1"
       transform="translate(-34.518106,-60.074036)"><path
         style="fill:#feffff;fill-opacity:1;stroke:none;stroke-width:0.0269875;stroke-linecap:butt;stroke-linejoin:miter;stroke-dasharray:none;stroke-opacity:1"
         d="m 111.89502,90.632316 -3.15404,3.154042 c -0.0524,0.548849 0.0592,0.967647 0.62176,1.028737 h 8.00381 c 0.36527,-0.0494 0.75465,-0.06973 0.76873,-0.542631 v -8.283811 c -0.1243,-0.649926 -0.51818,-0.713119 -1.00275,-0.578934 l -2.612,2.612001 C 103.33759,76.258731 86.478688,83.796699 85.053058,96.236587 85.010918,97.70409 86.85621,99.38197 88.674209,96.772167 90.979456,85.77611 103.26086,81.83228 111.89502,90.632316 Z"
         id="path5" /><path
         style="fill:#feffff;fill-opacity:1;stroke:none;stroke-width:0.0273121;stroke-linecap:butt;stroke-linejoin:miter;stroke-dasharray:none;stroke-opacity:1"
         d="m 91.25034,106.60206 3.191988,-3.19201 c 0.05305,-0.55544 -0.05991,-0.97928 -0.629242,-1.04111 h -8.100103 c -0.369664,0.0499 -0.763729,0.0705 -0.777979,0.54916 v 8.38348 c 0.125796,0.65774 0.524414,0.7217 1.014814,0.5859 l 2.643425,-2.64344 c 11.317481,11.90452 28.379207,4.27586 29.821987,-8.31368 0.0426,-1.485173 -1.82484,-3.183239 -3.66471,-0.54203 -2.33297,11.12834 -14.762145,15.11963 -23.50018,6.21373 z"
         id="path6" /></g></g></svg>
